<mxfile host="app.diagrams.net" agent="Mozilla/5.0 (Windows NT 10.0; Win64; x64) AppleWebKit/537.36 (KHTML, like Gecko) Chrome/133.0.0.0 Safari/537.36" version="26.1.0">
  <diagram name="Page-1" id="l3cO-euepoW5t7C0Cb6E">
    <mxGraphModel dx="1103" dy="497" grid="1" gridSize="10" guides="1" tooltips="1" connect="1" arrows="1" fold="1" page="1" pageScale="1" pageWidth="850" pageHeight="1100" math="0" shadow="0">
      <root>
        <mxCell id="0" />
        <mxCell id="1" parent="0" />
        <mxCell id="A4E7dAixT89eQWRPjKyi-5" value="" style="edgeStyle=orthogonalEdgeStyle;rounded=0;orthogonalLoop=1;jettySize=auto;html=1;" edge="1" parent="1" source="A4E7dAixT89eQWRPjKyi-1" target="A4E7dAixT89eQWRPjKyi-4">
          <mxGeometry relative="1" as="geometry" />
        </mxCell>
        <mxCell id="A4E7dAixT89eQWRPjKyi-1" value="Determinar hoteles cercanos" style="rounded=0;whiteSpace=wrap;html=1;" vertex="1" parent="1">
          <mxGeometry x="365" y="130" width="120" height="60" as="geometry" />
        </mxCell>
        <mxCell id="A4E7dAixT89eQWRPjKyi-3" value="" style="edgeStyle=orthogonalEdgeStyle;rounded=0;orthogonalLoop=1;jettySize=auto;html=1;" edge="1" parent="1" source="A4E7dAixT89eQWRPjKyi-2" target="A4E7dAixT89eQWRPjKyi-1">
          <mxGeometry relative="1" as="geometry" />
        </mxCell>
        <mxCell id="A4E7dAixT89eQWRPjKyi-2" value="Inicio" style="ellipse;whiteSpace=wrap;html=1;" vertex="1" parent="1">
          <mxGeometry x="365" y="10" width="120" height="80" as="geometry" />
        </mxCell>
        <mxCell id="A4E7dAixT89eQWRPjKyi-8" value="" style="edgeStyle=orthogonalEdgeStyle;rounded=0;orthogonalLoop=1;jettySize=auto;html=1;" edge="1" parent="1" source="A4E7dAixT89eQWRPjKyi-4" target="A4E7dAixT89eQWRPjKyi-6">
          <mxGeometry relative="1" as="geometry" />
        </mxCell>
        <mxCell id="A4E7dAixT89eQWRPjKyi-4" value="Obtener los contactos" style="rounded=0;whiteSpace=wrap;html=1;" vertex="1" parent="1">
          <mxGeometry x="365" y="230" width="120" height="60" as="geometry" />
        </mxCell>
        <mxCell id="A4E7dAixT89eQWRPjKyi-10" value="" style="edgeStyle=orthogonalEdgeStyle;rounded=0;orthogonalLoop=1;jettySize=auto;html=1;" edge="1" parent="1" source="A4E7dAixT89eQWRPjKyi-6" target="A4E7dAixT89eQWRPjKyi-9">
          <mxGeometry relative="1" as="geometry" />
        </mxCell>
        <mxCell id="A4E7dAixT89eQWRPjKyi-6" value="Llamar al hotel" style="rounded=0;whiteSpace=wrap;html=1;" vertex="1" parent="1">
          <mxGeometry x="365" y="320" width="120" height="60" as="geometry" />
        </mxCell>
        <mxCell id="A4E7dAixT89eQWRPjKyi-12" value="" style="edgeStyle=orthogonalEdgeStyle;rounded=0;orthogonalLoop=1;jettySize=auto;html=1;" edge="1" parent="1" source="A4E7dAixT89eQWRPjKyi-9" target="A4E7dAixT89eQWRPjKyi-11">
          <mxGeometry relative="1" as="geometry" />
        </mxCell>
        <mxCell id="A4E7dAixT89eQWRPjKyi-9" value="Preguntar disponibilidad." style="rounded=0;whiteSpace=wrap;html=1;" vertex="1" parent="1">
          <mxGeometry x="365" y="410" width="120" height="60" as="geometry" />
        </mxCell>
        <mxCell id="A4E7dAixT89eQWRPjKyi-15" style="edgeStyle=orthogonalEdgeStyle;rounded=0;orthogonalLoop=1;jettySize=auto;html=1;" edge="1" parent="1" source="A4E7dAixT89eQWRPjKyi-11">
          <mxGeometry relative="1" as="geometry">
            <mxPoint x="260" y="640" as="targetPoint" />
          </mxGeometry>
        </mxCell>
        <mxCell id="A4E7dAixT89eQWRPjKyi-16" style="edgeStyle=orthogonalEdgeStyle;rounded=0;orthogonalLoop=1;jettySize=auto;html=1;exitX=1;exitY=0.5;exitDx=0;exitDy=0;entryX=0.5;entryY=0;entryDx=0;entryDy=0;" edge="1" parent="1" source="A4E7dAixT89eQWRPjKyi-11" target="A4E7dAixT89eQWRPjKyi-14">
          <mxGeometry relative="1" as="geometry" />
        </mxCell>
        <mxCell id="A4E7dAixT89eQWRPjKyi-11" value="Hay disponibilidad?" style="rhombus;whiteSpace=wrap;html=1;" vertex="1" parent="1">
          <mxGeometry x="335" y="500" width="180" height="120" as="geometry" />
        </mxCell>
        <mxCell id="A4E7dAixT89eQWRPjKyi-35" style="edgeStyle=orthogonalEdgeStyle;rounded=0;orthogonalLoop=1;jettySize=auto;html=1;entryX=1;entryY=0.5;entryDx=0;entryDy=0;" edge="1" parent="1" source="A4E7dAixT89eQWRPjKyi-14" target="A4E7dAixT89eQWRPjKyi-4">
          <mxGeometry relative="1" as="geometry">
            <Array as="points">
              <mxPoint x="760" y="700" />
              <mxPoint x="760" y="260" />
            </Array>
          </mxGeometry>
        </mxCell>
        <mxCell id="A4E7dAixT89eQWRPjKyi-14" value="Seleccionar el siguiente hotel" style="rounded=0;whiteSpace=wrap;html=1;" vertex="1" parent="1">
          <mxGeometry x="580" y="670" width="120" height="60" as="geometry" />
        </mxCell>
        <mxCell id="A4E7dAixT89eQWRPjKyi-17" value="Si hay" style="text;html=1;align=center;verticalAlign=middle;whiteSpace=wrap;rounded=0;" vertex="1" parent="1">
          <mxGeometry x="250" y="535" width="60" height="30" as="geometry" />
        </mxCell>
        <mxCell id="A4E7dAixT89eQWRPjKyi-18" value="No hay" style="text;html=1;align=center;verticalAlign=middle;whiteSpace=wrap;rounded=0;" vertex="1" parent="1">
          <mxGeometry x="530" y="535" width="60" height="30" as="geometry" />
        </mxCell>
        <mxCell id="A4E7dAixT89eQWRPjKyi-30" style="edgeStyle=orthogonalEdgeStyle;rounded=0;orthogonalLoop=1;jettySize=auto;html=1;entryX=0;entryY=0.5;entryDx=0;entryDy=0;" edge="1" parent="1" source="A4E7dAixT89eQWRPjKyi-19" target="A4E7dAixT89eQWRPjKyi-14">
          <mxGeometry relative="1" as="geometry" />
        </mxCell>
        <mxCell id="A4E7dAixT89eQWRPjKyi-32" style="edgeStyle=orthogonalEdgeStyle;rounded=0;orthogonalLoop=1;jettySize=auto;html=1;entryX=0.5;entryY=0;entryDx=0;entryDy=0;" edge="1" parent="1" source="A4E7dAixT89eQWRPjKyi-19" target="A4E7dAixT89eQWRPjKyi-21">
          <mxGeometry relative="1" as="geometry" />
        </mxCell>
        <mxCell id="A4E7dAixT89eQWRPjKyi-19" value="Esta dentro del presupuesto" style="rhombus;whiteSpace=wrap;html=1;" vertex="1" parent="1">
          <mxGeometry x="160" y="640" width="200" height="120" as="geometry" />
        </mxCell>
        <mxCell id="A4E7dAixT89eQWRPjKyi-37" style="edgeStyle=orthogonalEdgeStyle;rounded=0;orthogonalLoop=1;jettySize=auto;html=1;" edge="1" parent="1" source="A4E7dAixT89eQWRPjKyi-21" target="A4E7dAixT89eQWRPjKyi-36">
          <mxGeometry relative="1" as="geometry" />
        </mxCell>
        <mxCell id="A4E7dAixT89eQWRPjKyi-21" value="Confirmar reservacion" style="rounded=0;whiteSpace=wrap;html=1;" vertex="1" parent="1">
          <mxGeometry x="40" y="800" width="120" height="60" as="geometry" />
        </mxCell>
        <mxCell id="A4E7dAixT89eQWRPjKyi-25" value="Si esta" style="text;html=1;align=center;verticalAlign=middle;whiteSpace=wrap;rounded=0;" vertex="1" parent="1">
          <mxGeometry x="140" y="750" width="60" height="30" as="geometry" />
        </mxCell>
        <mxCell id="A4E7dAixT89eQWRPjKyi-26" value="No esta" style="text;html=1;align=center;verticalAlign=middle;whiteSpace=wrap;rounded=0;" vertex="1" parent="1">
          <mxGeometry x="410" y="670" width="60" height="20" as="geometry" />
        </mxCell>
        <mxCell id="A4E7dAixT89eQWRPjKyi-36" value="Fin" style="ellipse;whiteSpace=wrap;html=1;" vertex="1" parent="1">
          <mxGeometry x="380" y="900" width="120" height="80" as="geometry" />
        </mxCell>
      </root>
    </mxGraphModel>
  </diagram>
</mxfile>
